<mxfile host="65bd71144e">
    <diagram name="Page-1" id="pscVqw5MkYJO_kQoXnNj">
        <mxGraphModel dx="638" dy="338" grid="0" gridSize="10" guides="1" tooltips="1" connect="1" arrows="1" fold="1" page="1" pageScale="1" pageWidth="850" pageHeight="1100" math="0" shadow="0">
            <root>
                <mxCell id="0"/>
                <mxCell id="1" parent="0"/>
                <mxCell id="VpqRDjkE_MsImU34JFe0-1" value="&lt;b&gt;&lt;u&gt;Power&lt;/u&gt;&lt;/b&gt;" style="text;whiteSpace=wrap;html=1;align=center;" parent="1" vertex="1">
                    <mxGeometry x="317" y="15" width="217" height="36" as="geometry"/>
                </mxCell>
                <mxCell id="VpqRDjkE_MsImU34JFe0-2" value="&lt;div align=&quot;center&quot;&gt;Pow(m,n) = m * m * m * ... * m &lt;font color=&quot;#999999&quot;&gt;(n times)&lt;/font&gt;&lt;br&gt;&lt;/div&gt;&amp;nbsp;" style="text;whiteSpace=wrap;html=1;align=center;" parent="1" vertex="1">
                    <mxGeometry x="271.0028571428571" y="76" width="274" height="36" as="geometry"/>
                </mxCell>
                <mxCell id="VpqRDjkE_MsImU34JFe0-8" value="" style="endArrow=none;html=1;rounded=0;" parent="1" edge="1">
                    <mxGeometry width="50" height="50" relative="1" as="geometry">
                        <mxPoint x="345" y="204" as="sourcePoint"/>
                        <mxPoint x="345" y="155" as="targetPoint"/>
                    </mxGeometry>
                </mxCell>
                <mxCell id="VpqRDjkE_MsImU34JFe0-9" value="" style="endArrow=none;html=1;rounded=0;" parent="1" edge="1">
                    <mxGeometry width="50" height="50" relative="1" as="geometry">
                        <mxPoint x="345" y="154" as="sourcePoint"/>
                        <mxPoint x="368" y="154" as="targetPoint"/>
                    </mxGeometry>
                </mxCell>
                <mxCell id="VpqRDjkE_MsImU34JFe0-10" value="" style="endArrow=none;html=1;rounded=0;" parent="1" edge="1">
                    <mxGeometry width="50" height="50" relative="1" as="geometry">
                        <mxPoint x="345" y="203" as="sourcePoint"/>
                        <mxPoint x="368" y="203" as="targetPoint"/>
                    </mxGeometry>
                </mxCell>
                <mxCell id="VpqRDjkE_MsImU34JFe0-13" value="&lt;b&gt;&lt;u&gt;Recursive Code:&lt;br&gt;&lt;/u&gt;&lt;/b&gt;" style="text;whiteSpace=wrap;html=1;" parent="1" vertex="1">
                    <mxGeometry x="87" y="51" width="217" height="36" as="geometry"/>
                </mxCell>
                <mxCell id="VpqRDjkE_MsImU34JFe0-55" value="&lt;div align=&quot;center&quot;&gt;&amp;nbsp;&amp;nbsp;&amp;nbsp;&amp;nbsp;&amp;nbsp;&amp;nbsp;&amp;nbsp;&amp;nbsp;&amp;nbsp;&amp;nbsp;&amp;nbsp;&amp;nbsp; = m * m * m * ... * (n-1) * m&lt;br&gt;&lt;/div&gt;&amp;nbsp;" style="text;whiteSpace=wrap;html=1;align=center;" parent="1" vertex="1">
                    <mxGeometry x="271.0028571428571" y="92" width="274" height="36" as="geometry"/>
                </mxCell>
                <mxCell id="VpqRDjkE_MsImU34JFe0-57" value="" style="endArrow=none;html=1;rounded=0;strokeColor=#FF3333;" parent="1" edge="1">
                    <mxGeometry width="50" height="50" relative="1" as="geometry">
                        <mxPoint x="367" y="116" as="sourcePoint"/>
                        <mxPoint x="484" y="115" as="targetPoint"/>
                    </mxGeometry>
                </mxCell>
                <mxCell id="VpqRDjkE_MsImU34JFe0-77" style="edgeStyle=orthogonalEdgeStyle;rounded=0;orthogonalLoop=1;jettySize=auto;html=1;exitX=0.5;exitY=1;exitDx=0;exitDy=0;entryX=0.5;entryY=0;entryDx=0;entryDy=0;" parent="1" source="VpqRDjkE_MsImU34JFe0-58" target="VpqRDjkE_MsImU34JFe0-11" edge="1">
                    <mxGeometry relative="1" as="geometry"/>
                </mxCell>
                <mxCell id="VpqRDjkE_MsImU34JFe0-58" value="&lt;font style=&quot;font-size: 10px;&quot; color=&quot;#ff0000&quot;&gt;Pow(m,n-1)&lt;/font&gt;" style="text;html=1;align=center;verticalAlign=middle;whiteSpace=wrap;rounded=0;" parent="1" vertex="1">
                    <mxGeometry x="395.5" y="108" width="60" height="30" as="geometry"/>
                </mxCell>
                <mxCell id="VpqRDjkE_MsImU34JFe0-75" value="" style="group" parent="1" vertex="1" connectable="0">
                    <mxGeometry x="254" y="153.00428571428566" width="341.0028571428571" height="58.99999999999997" as="geometry"/>
                </mxCell>
                <mxCell id="VpqRDjkE_MsImU34JFe0-7" value="Pow(m,n) =" style="text;whiteSpace=wrap;html=1;" parent="VpqRDjkE_MsImU34JFe0-75" vertex="1">
                    <mxGeometry y="10.995714285714342" width="74" height="36" as="geometry"/>
                </mxCell>
                <mxCell id="VpqRDjkE_MsImU34JFe0-11" value="&lt;span style=&quot;white-space: pre;&quot;&gt;&#9;&lt;/span&gt;&amp;nbsp; &amp;nbsp;&amp;nbsp; =&amp;nbsp;Pow(m,n-1)*m &amp;nbsp;&amp;nbsp;&amp;nbsp;&amp;nbsp;&amp;nbsp;&amp;nbsp;&amp;nbsp;&amp;nbsp;&amp;nbsp;&amp;nbsp; if n &amp;gt; 0" style="text;whiteSpace=wrap;html=1;" parent="VpqRDjkE_MsImU34JFe0-75" vertex="1">
                    <mxGeometry x="67.00285714285712" width="274" height="36" as="geometry"/>
                </mxCell>
                <mxCell id="VpqRDjkE_MsImU34JFe0-50" value="&lt;span style=&quot;white-space: pre;&quot;&gt;&#9;&lt;/span&gt;&amp;nbsp; &amp;nbsp;&amp;nbsp; = 1 &amp;nbsp;&amp;nbsp;&amp;nbsp;&amp;nbsp;&amp;nbsp;&amp;nbsp;&amp;nbsp;&amp;nbsp;&amp;nbsp;&amp;nbsp;&amp;nbsp;&amp;nbsp;&amp;nbsp;&amp;nbsp;&amp;nbsp;&amp;nbsp;&amp;nbsp;&amp;nbsp;&amp;nbsp;&amp;nbsp;&amp;nbsp;&amp;nbsp;&amp;nbsp;&amp;nbsp;&amp;nbsp; &lt;span style=&quot;white-space: pre;&quot;&gt;&#9;&lt;/span&gt;&amp;nbsp;&amp;nbsp; if n = 0" style="text;whiteSpace=wrap;html=1;" parent="VpqRDjkE_MsImU34JFe0-75" vertex="1">
                    <mxGeometry x="67.00285714285712" y="22.99999999999997" width="274" height="36" as="geometry"/>
                </mxCell>
                <mxCell id="VpqRDjkE_MsImU34JFe0-129" value="" style="group;movable=1;resizable=1;rotatable=1;deletable=1;editable=1;locked=0;connectable=1;" parent="1" vertex="1" connectable="0">
                    <mxGeometry x="421" y="221" width="384.5" height="198.0033333333334" as="geometry"/>
                </mxCell>
                <mxCell id="VpqRDjkE_MsImU34JFe0-102" style="edgeStyle=orthogonalEdgeStyle;rounded=0;orthogonalLoop=1;jettySize=auto;html=1;exitX=0;exitY=0.5;exitDx=0;exitDy=0;entryX=0.5;entryY=0;entryDx=0;entryDy=0;" parent="VpqRDjkE_MsImU34JFe0-129" source="VpqRDjkE_MsImU34JFe0-59" edge="1">
                    <mxGeometry relative="1" as="geometry">
                        <mxPoint x="220.5" y="33" as="targetPoint"/>
                    </mxGeometry>
                </mxCell>
                <mxCell id="VpqRDjkE_MsImU34JFe0-105" style="edgeStyle=orthogonalEdgeStyle;rounded=0;orthogonalLoop=1;jettySize=auto;html=1;exitX=1;exitY=0.5;exitDx=0;exitDy=0;entryX=0.5;entryY=0;entryDx=0;entryDy=0;" parent="VpqRDjkE_MsImU34JFe0-129" source="VpqRDjkE_MsImU34JFe0-59" target="VpqRDjkE_MsImU34JFe0-103" edge="1">
                    <mxGeometry relative="1" as="geometry"/>
                </mxCell>
                <mxCell id="VpqRDjkE_MsImU34JFe0-59" value="Pow(2,4)" style="text;html=1;align=center;verticalAlign=middle;whiteSpace=wrap;rounded=0;" parent="VpqRDjkE_MsImU34JFe0-129" vertex="1">
                    <mxGeometry x="250.5" width="60" height="30" as="geometry"/>
                </mxCell>
                <mxCell id="VpqRDjkE_MsImU34JFe0-103" value="&lt;font color=&quot;#ff0000&quot;&gt;*2&lt;/font&gt;" style="text;html=1;align=center;verticalAlign=middle;whiteSpace=wrap;rounded=0;" parent="VpqRDjkE_MsImU34JFe0-129" vertex="1">
                    <mxGeometry x="310.5" y="30" width="60" height="30" as="geometry"/>
                </mxCell>
                <mxCell id="VpqRDjkE_MsImU34JFe0-111" value="" style="group" parent="VpqRDjkE_MsImU34JFe0-129" vertex="1" connectable="0">
                    <mxGeometry x="158" y="32" width="120" height="33" as="geometry"/>
                </mxCell>
                <mxCell id="VpqRDjkE_MsImU34JFe0-108" style="edgeStyle=orthogonalEdgeStyle;rounded=0;orthogonalLoop=1;jettySize=auto;html=1;exitX=0;exitY=0.5;exitDx=0;exitDy=0;entryX=0.5;entryY=0;entryDx=0;entryDy=0;" parent="VpqRDjkE_MsImU34JFe0-111" source="VpqRDjkE_MsImU34JFe0-110" edge="1">
                    <mxGeometry relative="1" as="geometry">
                        <mxPoint y="33" as="targetPoint"/>
                    </mxGeometry>
                </mxCell>
                <mxCell id="VpqRDjkE_MsImU34JFe0-109" style="edgeStyle=orthogonalEdgeStyle;rounded=0;orthogonalLoop=1;jettySize=auto;html=1;exitX=1;exitY=0.5;exitDx=0;exitDy=0;entryX=0.5;entryY=0;entryDx=0;entryDy=0;" parent="VpqRDjkE_MsImU34JFe0-111" source="VpqRDjkE_MsImU34JFe0-110" edge="1">
                    <mxGeometry relative="1" as="geometry">
                        <mxPoint x="120" y="30" as="targetPoint"/>
                    </mxGeometry>
                </mxCell>
                <mxCell id="VpqRDjkE_MsImU34JFe0-110" value="Pow(2,3)" style="text;html=1;align=center;verticalAlign=middle;whiteSpace=wrap;rounded=0;" parent="VpqRDjkE_MsImU34JFe0-111" vertex="1">
                    <mxGeometry x="29.5" width="60" height="30" as="geometry"/>
                </mxCell>
                <mxCell id="VpqRDjkE_MsImU34JFe0-112" value="&lt;font color=&quot;#ff0000&quot;&gt;*2&lt;/font&gt;" style="text;html=1;align=center;verticalAlign=middle;whiteSpace=wrap;rounded=0;" parent="VpqRDjkE_MsImU34JFe0-129" vertex="1">
                    <mxGeometry x="246" y="56" width="60" height="30" as="geometry"/>
                </mxCell>
                <mxCell id="VpqRDjkE_MsImU34JFe0-113" value="" style="group" parent="VpqRDjkE_MsImU34JFe0-129" vertex="1" connectable="0">
                    <mxGeometry x="94" y="61" width="120" height="33" as="geometry"/>
                </mxCell>
                <mxCell id="VpqRDjkE_MsImU34JFe0-114" style="edgeStyle=orthogonalEdgeStyle;rounded=0;orthogonalLoop=1;jettySize=auto;html=1;exitX=0;exitY=0.5;exitDx=0;exitDy=0;entryX=0.5;entryY=0;entryDx=0;entryDy=0;" parent="VpqRDjkE_MsImU34JFe0-113" source="VpqRDjkE_MsImU34JFe0-116" edge="1">
                    <mxGeometry relative="1" as="geometry">
                        <mxPoint y="33" as="targetPoint"/>
                    </mxGeometry>
                </mxCell>
                <mxCell id="VpqRDjkE_MsImU34JFe0-115" style="edgeStyle=orthogonalEdgeStyle;rounded=0;orthogonalLoop=1;jettySize=auto;html=1;exitX=1;exitY=0.5;exitDx=0;exitDy=0;entryX=0.5;entryY=0;entryDx=0;entryDy=0;" parent="VpqRDjkE_MsImU34JFe0-113" source="VpqRDjkE_MsImU34JFe0-116" edge="1">
                    <mxGeometry relative="1" as="geometry">
                        <mxPoint x="120" y="30" as="targetPoint"/>
                    </mxGeometry>
                </mxCell>
                <mxCell id="VpqRDjkE_MsImU34JFe0-116" value="Pow(2,2)" style="text;html=1;align=center;verticalAlign=middle;whiteSpace=wrap;rounded=0;" parent="VpqRDjkE_MsImU34JFe0-113" vertex="1">
                    <mxGeometry x="29.5" width="60" height="30" as="geometry"/>
                </mxCell>
                <mxCell id="VpqRDjkE_MsImU34JFe0-117" value="&lt;font color=&quot;#ff0000&quot;&gt;*2&lt;/font&gt;" style="text;html=1;align=center;verticalAlign=middle;whiteSpace=wrap;rounded=0;" parent="VpqRDjkE_MsImU34JFe0-129" vertex="1">
                    <mxGeometry x="182" y="84" width="60" height="30" as="geometry"/>
                </mxCell>
                <mxCell id="VpqRDjkE_MsImU34JFe0-118" value="" style="group" parent="VpqRDjkE_MsImU34JFe0-129" vertex="1" connectable="0">
                    <mxGeometry x="31" y="88" width="120" height="33" as="geometry"/>
                </mxCell>
                <mxCell id="VpqRDjkE_MsImU34JFe0-119" style="edgeStyle=orthogonalEdgeStyle;rounded=0;orthogonalLoop=1;jettySize=auto;html=1;exitX=0;exitY=0.5;exitDx=0;exitDy=0;entryX=0.5;entryY=0;entryDx=0;entryDy=0;" parent="VpqRDjkE_MsImU34JFe0-118" source="VpqRDjkE_MsImU34JFe0-121" edge="1">
                    <mxGeometry relative="1" as="geometry">
                        <mxPoint y="33" as="targetPoint"/>
                    </mxGeometry>
                </mxCell>
                <mxCell id="VpqRDjkE_MsImU34JFe0-120" style="edgeStyle=orthogonalEdgeStyle;rounded=0;orthogonalLoop=1;jettySize=auto;html=1;exitX=1;exitY=0.5;exitDx=0;exitDy=0;entryX=0.5;entryY=0;entryDx=0;entryDy=0;" parent="VpqRDjkE_MsImU34JFe0-118" source="VpqRDjkE_MsImU34JFe0-121" edge="1">
                    <mxGeometry relative="1" as="geometry">
                        <mxPoint x="120" y="30" as="targetPoint"/>
                    </mxGeometry>
                </mxCell>
                <mxCell id="VpqRDjkE_MsImU34JFe0-121" value="Pow(2,1)" style="text;html=1;align=center;verticalAlign=middle;whiteSpace=wrap;rounded=0;" parent="VpqRDjkE_MsImU34JFe0-118" vertex="1">
                    <mxGeometry x="29.5" width="60" height="30" as="geometry"/>
                </mxCell>
                <mxCell id="VpqRDjkE_MsImU34JFe0-122" value="&lt;font color=&quot;#ff0000&quot;&gt;*2&lt;/font&gt;" style="text;html=1;align=center;verticalAlign=middle;whiteSpace=wrap;rounded=0;" parent="VpqRDjkE_MsImU34JFe0-129" vertex="1">
                    <mxGeometry x="120" y="117" width="60" height="30" as="geometry"/>
                </mxCell>
                <mxCell id="VpqRDjkE_MsImU34JFe0-127" value="Pow(2,0)" style="text;html=1;align=center;verticalAlign=middle;whiteSpace=wrap;rounded=0;" parent="VpqRDjkE_MsImU34JFe0-129" vertex="1">
                    <mxGeometry y="117" width="60" height="30" as="geometry"/>
                </mxCell>
                <mxCell id="VpqRDjkE_MsImU34JFe0-128" value="Time Complexity = O(n)&lt;br&gt;Space Complexity = O(n) &lt;font color=&quot;#999999&quot;&gt;(due the recursion stack usage)&lt;/font&gt;" style="text;whiteSpace=wrap;html=1;" parent="VpqRDjkE_MsImU34JFe0-129" vertex="1">
                    <mxGeometry x="51.5" y="147.0033333333334" width="333" height="51" as="geometry"/>
                </mxCell>
                <mxCell id="VpqRDjkE_MsImU34JFe0-130" value="&lt;b&gt;int &lt;/b&gt;Pow(&lt;b&gt;int &lt;/b&gt;m&lt;b&gt;, int &lt;/b&gt;n)&lt;br&gt;&lt;div&gt;{&lt;/div&gt;&lt;div&gt;&lt;span style=&quot;white-space: pre;&quot;&gt;&#9;if (n==0)&lt;/span&gt;&lt;/div&gt;&lt;div&gt;&lt;span style=&quot;white-space: pre;&quot;&gt;&lt;span style=&quot;white-space: pre;&quot;&gt;&#9;&lt;/span&gt;{&lt;/span&gt;&lt;/div&gt;&lt;div&gt;&lt;span style=&quot;white-space: pre;&quot;&gt;&lt;span style=&quot;white-space: pre;&quot;&gt;&#9;&lt;/span&gt;&lt;span style=&quot;white-space: pre;&quot;&gt;&#9;&lt;/span&gt;return 1;&lt;br&gt;&lt;/span&gt;&lt;/div&gt;&lt;div&gt;&lt;span style=&quot;white-space: pre;&quot;&gt;&lt;span style=&quot;white-space: pre;&quot;&gt;&#9;&lt;/span&gt;}&lt;/span&gt;&lt;br&gt;&lt;span style=&quot;white-space: pre;&quot;&gt;&#9;&lt;/span&gt;else&lt;/div&gt;&lt;div&gt;&lt;span style=&quot;white-space: pre;&quot;&gt;&#9;&lt;/span&gt;{&lt;/div&gt;&lt;div&gt;&lt;span style=&quot;white-space: pre;&quot;&gt;&#9;&lt;/span&gt;&lt;span style=&quot;white-space: pre;&quot;&gt;&#9;&lt;/span&gt;return Pow(m,n-1)*m;&lt;br&gt;&lt;/div&gt;&lt;div&gt;&lt;span style=&quot;white-space: pre;&quot;&gt;&#9;&lt;/span&gt;}&lt;br&gt;&lt;/div&gt;}" style="text;whiteSpace=wrap;html=1;" parent="1" vertex="1">
                    <mxGeometry x="158.00285714285712" y="244" width="274" height="36" as="geometry"/>
                </mxCell>
                <mxCell id="VpqRDjkE_MsImU34JFe0-42" value="&lt;b&gt;&lt;u&gt;First option:&lt;br&gt;&lt;/u&gt;&lt;/b&gt;" style="text;whiteSpace=wrap;html=1;" parent="1" vertex="1">
                    <mxGeometry x="87.00482758620697" y="216.0037931034484" width="123" height="36" as="geometry"/>
                </mxCell>
                <mxCell id="VpqRDjkE_MsImU34JFe0-133" value="&lt;b&gt;&lt;u&gt;Second option:&lt;br&gt;&lt;/u&gt;&lt;/b&gt;" style="text;whiteSpace=wrap;html=1;" parent="1" vertex="1">
                    <mxGeometry x="87.00482758620697" y="419.0037931034484" width="123" height="36" as="geometry"/>
                </mxCell>
                <mxCell id="VpqRDjkE_MsImU34JFe0-134" value="&lt;b&gt;int &lt;/b&gt;Pow(&lt;b&gt;int &lt;/b&gt;m&lt;b&gt;, int &lt;/b&gt;n)&lt;br&gt;&lt;div&gt;{&lt;/div&gt;&lt;div&gt;&lt;span style=&quot;white-space: pre;&quot;&gt;&#9;if (n==0)&lt;/span&gt;&lt;/div&gt;&lt;div&gt;&lt;span style=&quot;white-space: pre;&quot;&gt;&lt;span style=&quot;white-space: pre;&quot;&gt;&#9;&lt;/span&gt;{&lt;/span&gt;&lt;/div&gt;&lt;div&gt;&lt;span style=&quot;white-space: pre;&quot;&gt;&lt;span style=&quot;white-space: pre;&quot;&gt;&#9;&lt;/span&gt;&lt;span style=&quot;white-space: pre;&quot;&gt;&#9;&lt;/span&gt;return 1;&lt;br&gt;&lt;/span&gt;&lt;/div&gt;&lt;div&gt;&lt;span style=&quot;white-space: pre;&quot;&gt;&lt;span style=&quot;white-space: pre;&quot;&gt;&#9;&lt;/span&gt;}&lt;/span&gt;&lt;br&gt;&lt;span style=&quot;white-space: pre;&quot;&gt;&#9;&lt;/span&gt;else if (n%2 == 0) &lt;font color=&quot;#009900&quot;&gt;// Is Even&lt;/font&gt;&lt;br&gt;&lt;/div&gt;&lt;div&gt;&lt;span style=&quot;white-space: pre;&quot;&gt;&#9;&lt;/span&gt;{&lt;/div&gt;&lt;div&gt;&lt;span style=&quot;white-space: pre;&quot;&gt;&#9;&lt;/span&gt;&lt;span style=&quot;white-space: pre;&quot;&gt;&#9;&lt;/span&gt;return Pow(m*m,n/2);&lt;br&gt;&lt;/div&gt;&lt;div&gt;&lt;span style=&quot;white-space: pre;&quot;&gt;&#9;&lt;/span&gt;}&lt;/div&gt;&lt;div&gt;&lt;span style=&quot;white-space: pre;&quot;&gt;&#9;&lt;/span&gt;else &lt;font color=&quot;#009900&quot;&gt;// Is Odd&lt;/font&gt;&lt;br&gt;&lt;/div&gt;&lt;div&gt;&lt;span style=&quot;white-space: pre;&quot;&gt;&#9;&lt;/span&gt;{&lt;/div&gt;&lt;div&gt;&lt;span style=&quot;white-space: pre;&quot;&gt;&#9;&lt;/span&gt;&lt;span style=&quot;white-space: pre;&quot;&gt;&#9;return Pow(m*m,(n-1)/2)*m;&lt;/span&gt;&lt;br&gt;&lt;/div&gt;&lt;div&gt;&lt;span style=&quot;white-space: pre;&quot;&gt;&#9;&lt;/span&gt;}&lt;br&gt;&lt;/div&gt;}" style="text;whiteSpace=wrap;html=1;" parent="1" vertex="1">
                    <mxGeometry x="121.50285714285712" y="448" width="274" height="36" as="geometry"/>
                </mxCell>
                <mxCell id="VpqRDjkE_MsImU34JFe0-136" value="&lt;div&gt;&lt;b&gt;&lt;u&gt;if n is Even:&lt;/u&gt;&lt;/b&gt; Pow(m,n) = Pow(m*m,n/2)&amp;nbsp;&lt;/div&gt;&lt;div&gt;Example: 2&lt;span lang=&quot;es&quot; class=&quot;BxUVEf ILfuVd&quot;&gt;&lt;span class=&quot;hgKElc&quot;&gt;^8 = (2*2&lt;/span&gt;&lt;/span&gt;&lt;span lang=&quot;es&quot; class=&quot;BxUVEf ILfuVd&quot;&gt;&lt;span class=&quot;hgKElc&quot;&gt;)&lt;/span&gt;&lt;/span&gt;&lt;span lang=&quot;es&quot; class=&quot;BxUVEf ILfuVd&quot;&gt;&lt;span class=&quot;hgKElc&quot;&gt;^4&lt;/span&gt;&lt;/span&gt;&lt;/div&gt;&lt;div&gt;&lt;span lang=&quot;es&quot; class=&quot;BxUVEf ILfuVd&quot;&gt;&lt;span class=&quot;hgKElc&quot;&gt;&lt;/span&gt;&lt;/span&gt;&lt;/div&gt;" style="text;html=1;align=center;verticalAlign=middle;whiteSpace=wrap;rounded=0;" parent="1" vertex="1">
                    <mxGeometry y="672" width="237" height="30" as="geometry"/>
                </mxCell>
                <mxCell id="VpqRDjkE_MsImU34JFe0-137" value="&lt;div&gt;&lt;b&gt;&lt;u&gt;if n is Odd:&lt;/u&gt;&lt;/b&gt; Pow(m,n) = m*Pow(m*m,(n-1)/2)&amp;nbsp;&lt;/div&gt;&lt;div&gt;Example: 2&lt;span lang=&quot;es&quot; class=&quot;BxUVEf ILfuVd&quot;&gt;&lt;span class=&quot;hgKElc&quot;&gt;^9 = 2*(2*2&lt;/span&gt;&lt;/span&gt;&lt;span lang=&quot;es&quot; class=&quot;BxUVEf ILfuVd&quot;&gt;&lt;span class=&quot;hgKElc&quot;&gt;)&lt;/span&gt;&lt;/span&gt;&lt;span lang=&quot;es&quot; class=&quot;BxUVEf ILfuVd&quot;&gt;&lt;span class=&quot;hgKElc&quot;&gt;^4&lt;/span&gt;&lt;/span&gt;&lt;/div&gt;&lt;div&gt;&lt;span lang=&quot;es&quot; class=&quot;BxUVEf ILfuVd&quot;&gt;&lt;span class=&quot;hgKElc&quot;&gt;&lt;/span&gt;&lt;/span&gt;&lt;/div&gt;" style="text;html=1;align=center;verticalAlign=middle;whiteSpace=wrap;rounded=0;" parent="1" vertex="1">
                    <mxGeometry x="227" y="672" width="264" height="30" as="geometry"/>
                </mxCell>
                <mxCell id="VpqRDjkE_MsImU34JFe0-155" value="" style="group;movable=1;resizable=1;rotatable=1;deletable=1;editable=1;locked=0;connectable=1;" parent="1" vertex="1" connectable="0">
                    <mxGeometry x="425" y="446" width="384.5" height="248" as="geometry"/>
                </mxCell>
                <mxCell id="VpqRDjkE_MsImU34JFe0-156" style="edgeStyle=orthogonalEdgeStyle;rounded=0;orthogonalLoop=1;jettySize=auto;html=1;exitX=0;exitY=0.5;exitDx=0;exitDy=0;entryX=0.5;entryY=0;entryDx=0;entryDy=0;" parent="VpqRDjkE_MsImU34JFe0-155" source="VpqRDjkE_MsImU34JFe0-158" edge="1">
                    <mxGeometry relative="1" as="geometry">
                        <mxPoint x="220.5" y="33" as="targetPoint"/>
                    </mxGeometry>
                </mxCell>
                <mxCell id="VpqRDjkE_MsImU34JFe0-157" style="edgeStyle=orthogonalEdgeStyle;rounded=0;orthogonalLoop=1;jettySize=auto;html=1;exitX=1;exitY=0.5;exitDx=0;exitDy=0;entryX=0.5;entryY=0;entryDx=0;entryDy=0;" parent="VpqRDjkE_MsImU34JFe0-155" source="VpqRDjkE_MsImU34JFe0-158" target="VpqRDjkE_MsImU34JFe0-159" edge="1">
                    <mxGeometry relative="1" as="geometry"/>
                </mxCell>
                <mxCell id="VpqRDjkE_MsImU34JFe0-158" value="Pow(2,5)" style="text;html=1;align=center;verticalAlign=middle;whiteSpace=wrap;rounded=0;" parent="VpqRDjkE_MsImU34JFe0-155" vertex="1">
                    <mxGeometry x="250.5" width="60" height="30" as="geometry"/>
                </mxCell>
                <mxCell id="VpqRDjkE_MsImU34JFe0-159" value="&lt;font color=&quot;#ff0000&quot;&gt;*2&lt;/font&gt;" style="text;html=1;align=center;verticalAlign=middle;whiteSpace=wrap;rounded=0;" parent="VpqRDjkE_MsImU34JFe0-155" vertex="1">
                    <mxGeometry x="310.5" y="30" width="60" height="30" as="geometry"/>
                </mxCell>
                <mxCell id="VpqRDjkE_MsImU34JFe0-160" value="" style="group" parent="VpqRDjkE_MsImU34JFe0-155" vertex="1" connectable="0">
                    <mxGeometry x="158" y="32" width="120" height="33" as="geometry"/>
                </mxCell>
                <mxCell id="VpqRDjkE_MsImU34JFe0-161" style="edgeStyle=orthogonalEdgeStyle;rounded=0;orthogonalLoop=1;jettySize=auto;html=1;exitX=0;exitY=0.5;exitDx=0;exitDy=0;entryX=0.5;entryY=0;entryDx=0;entryDy=0;" parent="VpqRDjkE_MsImU34JFe0-160" source="VpqRDjkE_MsImU34JFe0-163" edge="1">
                    <mxGeometry relative="1" as="geometry">
                        <mxPoint y="33" as="targetPoint"/>
                    </mxGeometry>
                </mxCell>
                <mxCell id="VpqRDjkE_MsImU34JFe0-163" value="Pow(4,2)" style="text;html=1;align=center;verticalAlign=middle;whiteSpace=wrap;rounded=0;" parent="VpqRDjkE_MsImU34JFe0-160" vertex="1">
                    <mxGeometry x="29.5" width="60" height="30" as="geometry"/>
                </mxCell>
                <mxCell id="VpqRDjkE_MsImU34JFe0-165" value="" style="group" parent="VpqRDjkE_MsImU34JFe0-155" vertex="1" connectable="0">
                    <mxGeometry x="94" y="61" width="120" height="33" as="geometry"/>
                </mxCell>
                <mxCell id="VpqRDjkE_MsImU34JFe0-166" style="edgeStyle=orthogonalEdgeStyle;rounded=0;orthogonalLoop=1;jettySize=auto;html=1;exitX=0;exitY=0.5;exitDx=0;exitDy=0;entryX=0.5;entryY=0;entryDx=0;entryDy=0;" parent="VpqRDjkE_MsImU34JFe0-165" source="VpqRDjkE_MsImU34JFe0-168" edge="1">
                    <mxGeometry relative="1" as="geometry">
                        <mxPoint y="33" as="targetPoint"/>
                    </mxGeometry>
                </mxCell>
                <mxCell id="VpqRDjkE_MsImU34JFe0-168" value="Pow(16,1)" style="text;html=1;align=center;verticalAlign=middle;whiteSpace=wrap;rounded=0;" parent="VpqRDjkE_MsImU34JFe0-165" vertex="1">
                    <mxGeometry x="29.5" width="60" height="30" as="geometry"/>
                </mxCell>
                <mxCell id="VpqRDjkE_MsImU34JFe0-170" value="" style="group" parent="VpqRDjkE_MsImU34JFe0-155" vertex="1" connectable="0">
                    <mxGeometry x="31" y="88" width="120" height="33" as="geometry"/>
                </mxCell>
                <mxCell id="VpqRDjkE_MsImU34JFe0-173" value="Pow(16*16,0)" style="text;html=1;align=center;verticalAlign=middle;whiteSpace=wrap;rounded=0;" parent="VpqRDjkE_MsImU34JFe0-170" vertex="1">
                    <mxGeometry x="29.5" width="60" height="30" as="geometry"/>
                </mxCell>
                <mxCell id="VpqRDjkE_MsImU34JFe0-176" value="Time Complexity = O(log(n)) &lt;font color=&quot;#999999&quot;&gt;(because n is divided by two each step)&lt;/font&gt;&lt;br&gt;Space Complexity = O(log(n)) &lt;font color=&quot;#999999&quot;&gt;(due the recursion stack usage)&lt;/font&gt;" style="text;whiteSpace=wrap;html=1;" parent="VpqRDjkE_MsImU34JFe0-155" vertex="1">
                    <mxGeometry x="2" y="126" width="382.5" height="51" as="geometry"/>
                </mxCell>
                <mxCell id="VpqRDjkE_MsImU34JFe0-177" value="&lt;b&gt;&lt;u&gt;How to calculate Time Complexity?&lt;br&gt;&lt;br&gt;&lt;br&gt;&lt;/u&gt;&lt;/b&gt;" style="text;html=1;align=center;verticalAlign=middle;whiteSpace=wrap;rounded=0;" parent="VpqRDjkE_MsImU34JFe0-155" vertex="1">
                    <mxGeometry x="144" y="188" width="159" height="30" as="geometry"/>
                </mxCell>
                <mxCell id="VpqRDjkE_MsImU34JFe0-178" value="n/(2&lt;span lang=&quot;es&quot; class=&quot;BxUVEf ILfuVd&quot;&gt;&lt;span class=&quot;hgKElc&quot;&gt;^divisions)=1&lt;br&gt;&lt;/span&gt;&lt;/span&gt;log_2(n) = divisions" style="text;html=1;align=center;verticalAlign=middle;whiteSpace=wrap;rounded=0;" parent="VpqRDjkE_MsImU34JFe0-155" vertex="1">
                    <mxGeometry x="159.25" y="215" width="117.5" height="30" as="geometry"/>
                </mxCell>
                <mxCell id="VpqRDjkE_MsImU34JFe0-179" value="&lt;div&gt;&lt;b&gt;&lt;u&gt;Iteration Code:&lt;/u&gt;&lt;/b&gt;&lt;/div&gt;&lt;div&gt;&lt;b&gt;&lt;u&gt;&lt;br&gt;&lt;/u&gt;&lt;/b&gt;&lt;/div&gt;" style="text;whiteSpace=wrap;html=1;" parent="1" vertex="1">
                    <mxGeometry x="87" y="740" width="217" height="36" as="geometry"/>
                </mxCell>
                <mxCell id="VpqRDjkE_MsImU34JFe0-43" value="&lt;b&gt;int &lt;/b&gt;pow(&lt;b&gt;int &lt;/b&gt;m, &lt;b&gt;int &lt;/b&gt;n)&lt;br&gt;&lt;div&gt;{&lt;/div&gt;&lt;div&gt;&lt;span style=&quot;white-space: pre;&quot;&gt;&lt;span style=&quot;white-space: pre;&quot;&gt;&#9;&lt;/span&gt;int result = 1;&lt;/span&gt;&lt;/div&gt;&lt;div&gt;&lt;span style=&quot;white-space: pre;&quot;&gt;&lt;span style=&quot;white-space: pre;&quot;&gt;&#9;&lt;/span&gt;for (int i = 0; i &amp;lt; n; i++)&lt;br&gt;&lt;span style=&quot;white-space: pre;&quot;&gt;&#9;&lt;/span&gt;{&lt;/span&gt;&lt;/div&gt;&lt;div&gt;&lt;span style=&quot;white-space: pre;&quot;&gt;&lt;span style=&quot;white-space: pre;&quot;&gt;&#9;&lt;/span&gt;&lt;span style=&quot;white-space: pre;&quot;&gt;&#9;&lt;/span&gt;result = result*m;&lt;br&gt;&lt;/span&gt;&lt;/div&gt;&lt;div&gt;&lt;span style=&quot;white-space: pre;&quot;&gt;&lt;span style=&quot;white-space: pre;&quot;&gt;&#9;&lt;/span&gt;}&#9;&lt;/span&gt;&lt;/div&gt;&lt;div&gt;&lt;span style=&quot;white-space: pre;&quot;&gt;&lt;span style=&quot;white-space: pre;&quot;&gt;&#9;&lt;/span&gt;return &lt;/span&gt;&lt;span style=&quot;white-space: pre;&quot;&gt;result&lt;/span&gt;&lt;span style=&quot;white-space: pre;&quot;&gt;;&lt;br&gt;&lt;/span&gt;&lt;/div&gt;&lt;div&gt;}&lt;/div&gt;" style="text;whiteSpace=wrap;html=1;" parent="1" vertex="1">
                    <mxGeometry x="58.502857142857124" y="792" width="274" height="36" as="geometry"/>
                </mxCell>
                <mxCell id="VpqRDjkE_MsImU34JFe0-182" value="&lt;b&gt;&lt;u&gt;First option:&lt;br&gt;&lt;/u&gt;&lt;/b&gt;" style="text;whiteSpace=wrap;html=1;" parent="1" vertex="1">
                    <mxGeometry x="57.00482758620697" y="768.0037931034484" width="123" height="36" as="geometry"/>
                </mxCell>
                <mxCell id="VpqRDjkE_MsImU34JFe0-183" value="Time Complexity = O(n)&lt;br&gt;Space Complexity = O(1) " style="text;whiteSpace=wrap;html=1;" parent="1" vertex="1">
                    <mxGeometry x="54" y="935.0033333333333" width="333" height="51" as="geometry"/>
                </mxCell>
                <mxCell id="VpqRDjkE_MsImU34JFe0-184" value="&lt;b&gt;&lt;u&gt;Second option:&lt;br&gt;&lt;br&gt;&lt;br&gt;&lt;/u&gt;&lt;/b&gt;" style="text;whiteSpace=wrap;html=1;" parent="1" vertex="1">
                    <mxGeometry x="282.50482758620694" y="740.0037931034484" width="123" height="36" as="geometry"/>
                </mxCell>
                <mxCell id="VpqRDjkE_MsImU34JFe0-185" value="&lt;b&gt;int &lt;/b&gt;pow(&lt;b&gt;int &lt;/b&gt;m, &lt;b&gt;int &lt;/b&gt;n)&lt;br&gt;&lt;div&gt;{&lt;/div&gt;&lt;div&gt;&lt;span style=&quot;white-space: pre;&quot;&gt;&#9;&lt;/span&gt;int result = 1;&lt;/div&gt;&lt;div&gt;&lt;span style=&quot;white-space: pre;&quot;&gt;&#9;&lt;/span&gt;while(n&amp;gt;0)&lt;/div&gt;&lt;div&gt;&lt;span style=&quot;white-space: pre;&quot;&gt;&#9;&lt;/span&gt;{&lt;span style=&quot;white-space: pre;&quot;&gt;&#9;&lt;/span&gt;&lt;span style=&quot;white-space: pre;&quot;&gt;&#9;&lt;/span&gt;&lt;span style=&quot;white-space: pre;&quot;&gt;&#9;&lt;/span&gt;&lt;span style=&quot;white-space: pre;&quot;&gt;&#9;&lt;/span&gt;&lt;/div&gt;&lt;div&gt;&lt;span style=&quot;white-space: pre;&quot;&gt;&#9;&lt;/span&gt;&lt;span style=&quot;white-space: pre;&quot;&gt;&#9;&lt;/span&gt;if(n % 2 == 1)&lt;br&gt;&lt;span style=&quot;white-space: pre;&quot;&gt;&#9;&lt;/span&gt;&lt;span style=&quot;white-space: pre;&quot;&gt;&#9;&lt;/span&gt;{&lt;/div&gt;&lt;div&gt;&lt;span style=&quot;white-space: pre;&quot;&gt;&#9;&lt;/span&gt;&lt;span style=&quot;white-space: pre;&quot;&gt;&#9;&lt;/span&gt;&lt;span style=&quot;white-space: pre;&quot;&gt;&#9;&lt;/span&gt;result = result*m;&lt;/div&gt;&lt;div&gt;&lt;span style=&quot;white-space: pre;&quot;&gt;&#9;&lt;/span&gt;&lt;span style=&quot;white-space: pre;&quot;&gt;&#9;&lt;/span&gt;&lt;span style=&quot;white-space: pre;&quot;&gt;&#9;&lt;/span&gt;n = n-1;&lt;br&gt;&lt;/div&gt;&lt;div&gt;&lt;span style=&quot;white-space: pre;&quot;&gt;&#9;&lt;/span&gt;&lt;span style=&quot;white-space: pre;&quot;&gt;&#9;&lt;/span&gt;}&lt;/div&gt;&lt;div&gt;&lt;span style=&quot;white-space: pre;&quot;&gt;&#9;&lt;/span&gt;&lt;span style=&quot;white-space: pre;&quot;&gt;&#9;&lt;/span&gt;m = m*m;&lt;/div&gt;&lt;div&gt;&lt;span style=&quot;white-space: pre;&quot;&gt;&#9;&lt;/span&gt;&lt;span style=&quot;white-space: pre;&quot;&gt;&#9;&lt;/span&gt;n = n/2;&lt;/div&gt;&lt;div&gt;&lt;span style=&quot;white-space: pre;&quot;&gt;&#9;&lt;/span&gt;}&lt;/div&gt;&lt;div&gt;&lt;span style=&quot;white-space: pre;&quot;&gt;&#9;&lt;/span&gt;return result;&lt;br&gt;&lt;/div&gt;&lt;div&gt;}&lt;/div&gt;" style="text;whiteSpace=wrap;html=1;" parent="1" vertex="1">
                    <mxGeometry x="275" y="764" width="439" height="175" as="geometry"/>
                </mxCell>
                <mxCell id="VpqRDjkE_MsImU34JFe0-186" value="Time Complexity = O(log(n))&lt;br&gt;Space Complexity = O(1) " style="text;whiteSpace=wrap;html=1;" parent="1" vertex="1">
                    <mxGeometry x="275" y="997.0033333333333" width="333" height="51" as="geometry"/>
                </mxCell>
            </root>
        </mxGraphModel>
    </diagram>
</mxfile>